{
  "accessors": [
    {
      "bufferView": 2,
      "componentType": 5126,
      "count": 65532,
      "max": [
        0.6726279854774475,
        0.4413830041885376,
        1.0
      ],
      "min": [
        -0.701557993888855,
        -0.4318099915981293,
        -0.7588629722595215
      ],
      "type": "VEC3"
    },
    {
      "bufferView": 2,
      "byteOffset": 786384,
      "componentType": 5126,
      "count": 65532,
      "max": [
        0.9999735355377197,
        0.999946653842926,
        0.9999858736991882
      ],
      "min": [
        -0.9998802542686462,
        -0.9999995231628418,
        -0.9999882578849792
      ],
      "type": "VEC3"
    },
    {
      "bufferView": 3,
      "componentType": 5126,
      "count": 65532,
      "max": [
        0.9999988079071045,
        0.9999850988388062,
        0.9997752904891968,
        1.0
      ],
      "min": [
        -0.9987711310386658,
        -0.9998924732208252,
        -0.9998719692230225,
        -1.0
      ],
      "type": "VEC4"
    },
    {
      "bufferView": 1,
      "componentType": 5126,
      "count": 65532,
      "max": [
        0.9980469942092896,
        0.5908759832382202
      ],
      "min": [
        0.0019531199941411614,
        0.007973309606313705
      ],
      "type": "VEC2"
    },
    {
      "bufferView": 0,
      "componentType": 5125,
      "count": 313455,
      "type": "SCALAR"
    },
    {
      "bufferView": 2,
      "byteOffset": 1572768,
      "componentType": 5126,
      "count": 65532,
      "max": [
        0.6722589731216431,
        0.3157010078430176,
        0.9932000041007996
      ],
      "min": [
        -0.8089179992675781,
        -0.43546900153160095,
        -0.6564379930496216
      ],
      "type": "VEC3"
    },
    {
      "bufferView": 2,
      "byteOffset": 2359152,
      "componentType": 5126,
      "count": 65532,
      "max": [
        0.9999760985374451,
        0.9947105050086975,
        0.9999858736991882
      ],
      "min": [
        -0.9999908804893494,
        -1.0,
        -0.7564393281936646
      ],
      "type": "VEC3"
    },
    {
      "bufferView": 3,
      "byteOffset": 1048512,
      "componentType": 5126,
      "count": 65532,
      "max": [
        0.9999988079071045,
        0.9999994039535522,
        0.9998624920845032,
        1.0
      ],
      "min": [
        -0.9924537539482117,
        -0.999705970287323,
        -0.9940762519836426,
        1.0
      ],
      "type": "VEC4"
    },
    {
      "bufferView": 1,
      "byteOffset": 524256,
      "componentType": 5126,
      "count": 65532,
      "max": [
        0.9009780287742615,
        0.49055901169776917
      ],
      "min": [
        0.032516300678253174,
        0.013477499596774578
      ],
      "type": "VEC2"
    },
    {
      "bufferView": 0,
      "byteOffset": 1253820,
      "componentType": 5125,
      "count": 289095,
      "type": "SCALAR"
    },
    {
      "bufferView": 2,
      "byteOffset": 3145536,
      "componentType": 5126,
      "count": 65532,
      "max": [
        0.6444050073623657,
        0.31939101219177246,
        0.8482580184936523
      ],
      "min": [
        -0.8096020221710205,
        -0.4268690049648285,
        -0.7588629722595215
      ],
      "type": "VEC3"
    },
    {
      "bufferView": 2,
      "byteOffset": 3931920,
      "componentType": 5126,
      "count": 65532,
      "max": [
        0.9908957481384277,
        0.9999921321868896,
        0.9990376234054565
      ],
      "min": [
        -0.9999321103096008,
        -0.9999987483024597,
        -0.9999882578849792
      ],
      "type": "VEC3"
    },
    {
      "bufferView": 3,
      "byteOffset": 2097024,
      "componentType": 5126,
      "count": 65532,
      "max": [
        0.9999996423721313,
        0.9999597072601318,
        0.9944385290145874,
        1.0
      ],
      "min": [
        -0.9945728778839111,
        -0.9757757782936096,
        -0.799187958240509,
        1.0
      ],
      "type": "VEC4"
    },
    {
      "bufferView": 1,
      "byteOffset": 1048512,
      "componentType": 5126,
      "count": 65532,
      "max": [
        0.8544960021972656,
        0.4451049864292145
      ],
      "min": [
        0.13985000550746918,
        0.0019531199941411614
      ],
      "type": "VEC2"
    },
    {
      "bufferView": 0,
      "byteOffset": 2410200,
      "componentType": 5125,
      "count": 339735,
      "type": "SCALAR"
    },
    {
      "bufferView": 2,
      "byteOffset": 4718304,
      "componentType": 5126,
      "count": 65532,
      "max": [
        0.8330119848251343,
        0.4403649866580963,
        0.9847990274429321
      ],
      "min": [
        -0.8321580290794373,
        -0.4407770037651062,
        -0.9973869919776917
      ],
      "type": "VEC3"
    },
    {
      "bufferView": 2,
      "byteOffset": 5504688,
      "componentType": 5126,
      "count": 65532,
      "max": [
        0.9996650218963623,
        0.9999927878379822,
        0.9994874596595764
      ],
      "min": [
        -0.9999702572822571,
        -0.9999998807907104,
        -0.9820860028266907
      ],
      "type": "VEC3"
    },
    {
      "bufferView": 3,
      "byteOffset": 3145536,
      "componentType": 5126,
      "count": 65532,
      "max": [
        0.9997347593307495,
        0.9999861121177673,
        0.9999489188194275,
        1.0
      ],
      "min": [
        -0.9834365844726563,
        -0.9999427199363708,
        -0.9967249035835266,
        -1.0
      ],
      "type": "VEC4"
    },
    {
      "bufferView": 1,
      "byteOffset": 1572768,
      "componentType": 5126,
      "count": 65532,
      "max": [
        0.9892690181732178,
        0.9960089921951294
      ],
      "min": [
        0.05185459926724434,
        0.011216700077056885
      ],
      "type": "VEC2"
    },
    {
      "bufferView": 0,
      "byteOffset": 3769140,
      "componentType": 5125,
      "count": 282696,
      "type": "SCALAR"
    },
    {
      "bufferView": 2,
      "byteOffset": 6291072,
      "componentType": 5126,
      "count": 59415,
      "max": [
        0.8164730072021484,
        0.3509739935398102,
        0.9930070042610168
      ],
      "min": [
        -0.8330119848251343,
        -0.4413830041885376,
        -1.0
      ],
      "type": "VEC3"
    },
    {
      "bufferView": 2,
      "byteOffset": 7004052,
      "componentType": 5126,
      "count": 59415,
      "max": [
        0.9999455213546753,
        0.999946653842926,
        0.9999777674674988
      ],
      "min": [
        -0.9999539852142334,
        -1.0,
        -0.9999675750732422
      ],
      "type": "VEC3"
    },
    {
      "bufferView": 3,
      "byteOffset": 4194048,
      "componentType": 5126,
      "count": 59415,
      "max": [
        0.999998927116394,
        0.999656081199646,
        0.9999990463256836,
        1.0
      ],
      "min": [
        -0.9994586110115051,
        -0.9992832541465759,
        -0.9999901652336121,
        -1.0
      ],
      "type": "VEC4"
    },
    {
      "bufferView": 1,
      "byteOffset": 2097024,
      "componentType": 5126,
      "count": 59415,
      "max": [
        0.9889370203018188,
        0.9864510297775269
      ],
      "min": [
        0.01260400004684925,
        0.015897899866104126
      ],
      "type": "VEC2"
    },
    {
      "bufferView": 0,
      "byteOffset": 4899924,
      "componentType": 5125,
      "count": 256185,
      "type": "SCALAR"
    }
  ],
  "asset": {
    "extras": {
      "author": "Shix (https://sketchfab.com/bel.ismail)",
      "license": "CC-BY-4.0 (http://creativecommons.org/licenses/by/4.0/)",
      "source": "https://sketchfab.com/3d-models/chill-cat-3c46aadb77f644c8851dc935b14d93e9",
      "title": "Chill Cat"
    },
    "generator": "Sketchfab-14.55.0",
    "version": "2.0"
  },
  "bufferViews": [
    {
      "buffer": 0,
      "byteLength": 5924664,
      "name": "floatBufferViews",
      "target": 34963
    },
    {
      "buffer": 0,
      "byteLength": 2572344,
      "byteOffset": 5924664,
      "byteStride": 8,
      "name": "floatBufferViews",
      "target": 34962
    },
    {
      "buffer": 0,
      "byteLength": 7717032,
      "byteOffset": 8497008,
      "byteStride": 12,
      "name": "floatBufferViews",
      "target": 34962
    },
    {
      "buffer": 0,
      "byteLength": 5144688,
      "byteOffset": 16214040,
      "byteStride": 16,
      "name": "floatBufferViews",
      "target": 34962
    }
  ],
  "buffers": [
    {
      "byteLength": 21358728,
      "uri": "chillcat.bin"
    }
  ],
  "images": [
    {
      "uri": "textures/1001_baseColor.jpeg"
    },
    {
      "uri": "textures/1001_metallicRoughness.png"
    },
    {
      "uri": "textures/1001_normal.png"
    }
  ],
  "materials": [
    {
      "doubleSided": true,
      "name": "1001",
      "normalTexture": {
        "index": 2
      },
      "pbrMetallicRoughness": {
        "baseColorTexture": {
          "index": 0
        },
        "metallicRoughnessTexture": {
          "index": 1
        }
      }
    }
  ],
  "meshes": [
    {
      "name": "defaultMaterial",
      "primitives": [
        {
          "attributes": {
            "NORMAL": 1,
            "POSITION": 0,
            "TANGENT": 2,
            "TEXCOORD_0": 3
          },
          "indices": 4,
          "material": 0,
          "mode": 4
        }
      ]
    },
    {
      "name": "defaultMaterial",
      "primitives": [
        {
          "attributes": {
            "NORMAL": 6,
            "POSITION": 5,
            "TANGENT": 7,
            "TEXCOORD_0": 8
          },
          "indices": 9,
          "material": 0,
          "mode": 4
        }
      ]
    },
    {
      "name": "defaultMaterial",
      "primitives": [
        {
          "attributes": {
            "NORMAL": 11,
            "POSITION": 10,
            "TANGENT": 12,
            "TEXCOORD_0": 13
          },
          "indices": 14,
          "material": 0,
          "mode": 4
        }
      ]
    },
    {
      "name": "defaultMaterial",
      "primitives": [
        {
          "attributes": {
            "NORMAL": 16,
            "POSITION": 15,
            "TANGENT": 17,
            "TEXCOORD_0": 18
          },
          "indices": 19,
          "material": 0,
          "mode": 4
        }
      ]
    },
    {
      "name": "defaultMaterial",
      "primitives": [
        {
          "attributes": {
            "NORMAL": 21,
            "POSITION": 20,
            "TANGENT": 22,
            "TEXCOORD_0": 23
          },
          "indices": 24,
          "material": 0,
          "mode": 4
        }
      ]
    }
  ],
  "nodes": [
    {
      "children": [
        1
      ],
      "matrix": [
        1.0,
        0.0,
        0.0,
        0.0,
        0.0,
        2.220446049250313e-16,
        -1.0,
        0.0,
        0.0,
        1.0,
        2.220446049250313e-16,
        0.0,
        0.0,
        0.0,
        0.0,
        1.0
      ],
      "name": "Sketchfab_model"
    },
    {
      "children": [
        2
      ],
      "matrix": [
        1.0,
        0.0,
        0.0,
        0.0,
        0.0,
        -4.371139006309477e-08,
        0.999999999999999,
        0.0,
        0.0,
        -0.999999999999999,
        -4.371139006309477e-08,
        0.0,
        0.0,
        0.0,
        0.0,
        1.0
      ],
      "name": "Collada visual scene group"
    },
    {
      "children": [
        3,
        4,
        5,
        6,
        7
      ],
      "name": "Chill_Cat"
    },
    {
      "mesh": 0,
      "name": "defaultMaterial"
    },
    {
      "mesh": 1,
      "name": "defaultMaterial"
    },
    {
      "mesh": 2,
      "name": "defaultMaterial"
    },
    {
      "mesh": 3,
      "name": "defaultMaterial"
    },
    {
      "mesh": 4,
      "name": "defaultMaterial"
    }
  ],
  "samplers": [
    {
      "magFilter": 9729,
      "minFilter": 9987,
      "wrapS": 10497,
      "wrapT": 10497
    }
  ],
  "scene": 0,
  "scenes": [
    {
      "name": "Sketchfab_Scene",
      "nodes": [
        0
      ]
    }
  ],
  "textures": [
    {
      "sampler": 0,
      "source": 0
    },
    {
      "sampler": 0,
      "source": 1
    },
    {
      "sampler": 0,
      "source": 2
    }
  ]
}
